<svg width="1081" height="978" viewBox="0 0 1081 978" fill="none" xmlns="http://www.w3.org/2000/svg">
<path d="M293.572 531.787C191.309 542.539 117.126 634.156 127.878 736.418C138.631 838.68 230.247 912.864 332.509 902.112C434.772 891.359 508.955 799.743 498.203 697.48C487.451 595.218 395.834 521.035 293.572 531.787Z" fill="#EFE6FF"/>
<path d="M314.319 527.748C211.347 538.575 136.648 630.828 147.475 733.8C158.302 836.773 250.555 911.472 353.527 900.645C456.5 889.818 531.199 797.565 520.372 694.592C509.545 591.62 417.292 516.921 314.319 527.748Z" fill="#EDE5FF"/>
<path d="M335.086 523.893C231.404 534.795 156.19 627.684 167.091 731.366C177.993 835.049 270.882 910.263 374.565 899.361C478.248 888.46 553.461 795.571 542.56 691.888C531.658 588.205 438.769 512.991 335.086 523.893Z" fill="#ECE4FF"/>
<path d="M355.835 519.854C251.442 530.831 175.713 624.356 186.689 728.749C197.666 833.141 291.191 908.871 395.584 897.894C499.976 886.918 575.705 793.393 564.729 689C553.753 584.607 460.227 508.878 355.835 519.854Z" fill="#EAE2FF"/>
<path d="M376.582 515.816C271.479 526.867 195.235 621.028 206.286 726.131C217.337 831.234 311.499 907.478 416.601 896.427C521.704 885.376 597.949 791.215 586.898 686.112C575.847 581.009 481.685 504.764 376.582 515.816Z" fill="#E9E1FF"/>
<path d="M397.146 511.796C291.232 522.932 214.399 617.821 225.535 723.736C236.672 829.65 331.56 906.483 437.475 895.347C543.389 884.21 620.222 789.322 609.086 683.407C597.949 577.493 503.061 500.66 397.146 511.796Z" fill="#E7E0FF"/>
<path d="M417.894 507.757C311.269 518.968 233.921 614.493 245.132 721.118C256.343 827.743 351.868 905.091 458.493 893.88C565.117 882.669 642.465 787.144 631.254 680.519C620.043 573.894 524.519 496.546 417.894 507.757Z" fill="#E6DFFF"/>
<path d="M438.662 503.902C331.327 515.188 253.464 611.349 264.749 718.684C276.035 826.019 372.196 903.882 479.531 892.596C586.866 881.311 664.729 785.15 653.443 677.815C642.158 570.48 545.997 492.617 438.662 503.902Z" fill="#E4DEFF"/>
<path d="M459.409 499.863C351.364 511.224 272.986 608.021 284.346 716.066C295.706 824.111 392.504 902.49 500.549 891.129C608.594 879.769 686.972 782.972 675.612 674.927C664.251 566.882 567.454 488.503 459.409 499.863Z" fill="#E3DDFF"/>
<path d="M480.137 495.641C371.281 507.087 292.314 604.611 303.759 713.468C315.205 822.324 412.729 901.292 521.586 889.846C630.443 878.4 709.41 780.876 697.964 672.019C686.518 563.163 588.994 484.195 480.137 495.641Z" fill="#E1DBFF"/>
<path d="M500.904 491.786C391.338 503.306 311.855 601.467 323.376 711.034C334.896 820.601 433.057 900.083 542.623 888.562C652.19 877.042 731.673 778.882 720.152 669.315C708.632 559.748 610.471 480.266 500.904 491.786Z" fill="#E0DAFF"/>
<path d="M521.469 487.767C411.192 499.362 331.195 598.158 342.79 708.435C354.385 818.712 453.182 898.71 563.459 887.115C673.736 875.52 753.733 776.723 742.138 666.446C730.543 556.169 631.746 476.171 521.469 487.767Z" fill="#DED9FF"/>
<path d="M542.236 483.911C431.249 495.581 350.736 595.014 362.406 706.001C374.076 816.988 473.509 897.501 584.496 885.831C695.483 874.162 775.996 774.729 764.326 663.742C752.656 552.754 653.223 472.242 542.236 483.911Z" fill="#DDD8FF"/>
<path d="M562.965 479.689C451.166 491.444 370.064 591.604 381.82 703.403C393.575 815.202 493.735 896.303 605.533 884.548C717.332 872.793 798.434 772.633 786.678 660.834C774.923 549.035 674.763 467.934 562.965 479.689Z" fill="#DBD7FF"/>
<path d="M583.713 475.65C471.204 487.48 389.588 588.276 401.417 700.785C413.247 813.294 514.043 894.911 626.552 883.081C739.061 871.251 820.678 770.455 808.848 657.946C797.018 545.437 696.222 463.821 583.713 475.65Z" fill="#DAD6FF"/>
<path d="M604.48 471.795C491.261 483.7 409.129 585.132 421.034 698.351C432.938 811.57 534.371 893.702 647.59 881.798C760.809 869.893 842.94 768.461 831.036 655.242C819.132 542.023 717.699 459.891 604.48 471.795Z" fill="#D9D4FF"/>
<path d="M625.044 467.776C511.115 479.755 428.468 581.824 440.447 695.753C452.426 809.682 554.495 892.329 668.424 880.35C782.353 868.371 865 766.302 853.021 652.373C841.042 538.444 738.973 455.797 625.044 467.776Z" fill="#D7D3FF"/>
<path d="M645.792 463.737C531.051 475.801 447.815 578.597 459.88 693.338C471.944 808.079 574.74 891.315 689.481 879.25C804.222 867.186 887.457 764.39 875.393 649.649C863.328 534.908 760.532 451.673 645.792 463.737Z" fill="#D6D2FF"/>
<path d="M666.539 459.698C551.088 471.837 467.337 575.269 479.476 690.72C491.616 806.171 595.048 889.922 710.499 877.783C825.95 865.644 909.7 762.212 897.561 646.761C885.422 531.31 781.99 447.559 666.539 459.698Z" fill="#D4D1FF"/>
<path d="M687.288 455.659C571.126 467.873 486.86 571.942 499.074 688.103C511.288 804.264 615.356 888.53 731.517 876.316C847.679 864.102 931.945 760.034 919.731 643.873C907.517 527.712 803.449 443.446 687.288 455.659Z" fill="#D3D0FF"/>
<path d="M708.055 451.804C591.183 464.093 506.402 568.797 518.69 685.669C530.979 802.54 635.683 887.321 752.555 875.033C869.426 862.744 954.207 758.04 941.919 641.168C929.63 524.297 824.926 439.516 708.055 451.804Z" fill="#D1CEFF"/>
<path d="M728.802 447.766C611.221 460.129 525.924 565.47 538.287 683.051C550.65 800.632 655.991 885.929 773.573 873.566C891.154 861.203 976.45 755.862 964.087 638.28C951.724 520.699 846.383 435.403 728.802 447.766Z" fill="#D0CDFF"/>
<path d="M749.348 443.562C630.955 456.011 545.07 562.079 557.518 680.472C569.966 798.865 676.034 884.75 794.427 872.302C912.82 859.853 998.705 753.785 986.257 635.392C973.809 516.999 867.741 431.114 749.348 443.562Z" fill="#CECCFF"/>
<path d="M770.115 439.707C651.011 452.23 564.611 558.935 577.134 678.038C589.657 797.141 696.362 883.541 815.465 871.018C934.568 858.495 1020.97 751.791 1008.45 632.688C995.922 513.585 889.218 427.184 770.115 439.707Z" fill="#CDCBFF"/>
<path d="M790.862 435.669C671.049 448.266 584.133 555.607 596.731 675.42C609.329 795.233 716.669 882.149 836.483 869.551C956.296 856.953 1043.21 749.613 1030.61 629.8C1018.02 509.986 910.675 423.071 790.862 435.669Z" fill="#CBCAFF"/>
<path d="M811.629 431.814C691.106 444.486 603.675 552.463 616.347 672.986C629.02 793.51 736.997 880.94 857.52 868.268C978.043 855.595 1065.47 747.619 1052.8 627.095C1040.13 506.572 932.153 419.141 811.629 431.814Z" fill="#CAC9FF"/>
<path d="M832.358 427.591C711.023 440.349 623.004 549.053 635.762 670.388C648.519 791.723 757.223 879.742 878.558 866.984C999.893 854.227 1087.91 745.523 1075.15 624.188C1062.4 502.853 953.693 414.833 832.358 427.591Z" fill="#C8C7FF"/>
<path d="M853.106 423.552C731.061 436.385 642.526 545.725 655.358 667.77C668.191 789.815 777.531 878.35 899.576 865.517C1021.62 852.685 1110.16 743.345 1097.32 621.3C1084.49 499.254 975.151 410.72 853.106 423.552Z" fill="#C7C6FF"/>
<path d="M873.689 419.717C750.934 432.624 661.884 542.6 674.791 665.355C687.698 788.111 797.674 877.16 920.43 864.253C1043.19 851.346 1132.23 741.37 1119.33 618.615C1106.42 495.859 996.445 406.809 873.689 419.717Z" fill="#C5C5FF"/>
<path d="M842.395 413.535C719.64 426.442 630.59 536.418 643.497 659.174C656.404 781.929 766.381 870.979 889.136 858.072C1011.89 845.165 1100.94 735.188 1088.03 612.433C1075.13 489.678 965.151 400.628 842.395 413.535Z" fill="#C5C5FF"/>
<path d="M811.1 407.354C688.345 420.261 599.295 530.237 612.202 652.992C625.109 775.748 735.086 864.797 857.841 851.89C980.596 838.983 1069.65 729.007 1056.74 606.252C1043.83 483.496 933.856 394.447 811.1 407.354Z" fill="#C5C5FF"/>
<path d="M779.603 401.008C656.848 413.915 567.798 523.891 580.705 646.646C593.612 769.402 703.589 858.452 826.344 845.544C949.099 832.637 1038.15 722.661 1025.24 599.906C1012.33 477.15 902.359 388.101 779.603 401.008Z" fill="#C5C5FF"/>
<path d="M748.309 394.826C625.554 407.733 536.504 517.71 549.411 640.465C562.318 763.22 672.295 852.27 795.05 839.363C917.805 826.456 1006.86 716.48 993.948 593.724C981.041 470.969 871.065 381.919 748.309 394.826Z" fill="#C5C5FF"/>
<path d="M716.831 388.664C594.075 401.571 505.026 511.547 517.933 634.303C530.84 757.058 640.816 846.108 763.571 833.201C886.327 820.294 975.377 710.318 962.469 587.562C949.562 464.807 839.586 375.757 716.831 388.664Z" fill="#C5C5FF"/>
<path d="M685.537 382.483C562.781 395.39 473.732 505.366 486.639 628.121C499.546 750.877 609.522 839.926 732.278 827.019C855.033 814.112 944.083 704.136 931.176 581.381C918.268 458.625 808.292 369.576 685.537 382.483Z" fill="#C5C5FF"/>
<path d="M654.058 376.321C531.303 389.228 442.253 499.204 455.16 621.959C468.067 744.715 578.044 833.764 700.799 820.857C823.554 807.95 912.604 697.974 899.697 575.219C886.79 452.463 776.814 363.413 654.058 376.321Z" fill="#C5C5FF"/>
<path d="M622.764 370.139C500.009 383.046 410.959 493.022 423.866 615.778C436.773 738.533 546.75 827.583 669.505 814.676C792.261 801.769 881.31 691.792 868.403 569.037C855.496 446.282 745.52 357.232 622.764 370.139Z" fill="#C5C5FF"/>
<path d="M591.286 363.977C468.53 376.884 379.481 486.86 392.388 609.616C405.295 732.371 515.271 821.421 638.027 808.514C760.782 795.606 849.832 685.63 836.925 562.875C824.017 440.119 714.041 351.07 591.286 363.977Z" fill="#C5C5FF"/>
<path d="M559.992 357.795C437.237 370.703 348.187 480.679 361.094 603.434C374.001 726.19 483.977 815.239 606.733 802.332C729.488 789.425 818.538 679.449 805.631 556.693C792.724 433.938 682.747 344.888 559.992 357.795Z" fill="#C5C5FF"/>
<path d="M528.697 351.614C405.942 364.521 316.892 474.497 329.799 597.253C342.706 720.008 452.682 809.058 575.438 796.151C698.193 783.244 787.243 673.267 774.336 550.512C761.429 427.757 651.452 338.707 528.697 351.614Z" fill="#C5C5FF"/>
<path d="M497.2 345.268C374.445 358.175 285.395 468.151 298.302 590.907C311.209 713.662 421.185 802.712 543.941 789.805C666.696 776.898 755.746 666.922 742.839 544.166C729.932 421.411 619.955 332.361 497.2 345.268Z" fill="#C5C5FF"/>
<path d="M465.906 339.087C343.151 351.994 254.101 461.97 267.008 584.725C279.915 707.481 389.891 796.53 512.647 783.623C635.402 770.716 724.452 660.74 711.545 537.985C698.638 415.229 588.661 326.18 465.906 339.087Z" fill="#C5C5FF"/>
<path d="M434.427 332.924C311.672 345.832 222.622 455.808 235.529 578.563C248.437 701.319 358.413 790.368 481.168 777.461C603.924 764.554 692.973 654.578 680.066 531.822C667.159 409.067 557.183 320.017 434.427 332.924Z" fill="#C5C5FF"/>
<path d="M403.134 326.743C280.378 339.65 191.328 449.626 204.236 572.382C217.143 695.137 327.119 784.187 449.874 771.28C572.63 758.373 661.679 648.396 648.772 525.641C635.865 402.886 525.889 313.836 403.134 326.743Z" fill="#C5C5FF"/>
<path d="M371.655 320.581C248.9 333.488 159.85 443.464 172.757 566.22C185.664 688.975 295.64 778.025 418.396 765.118C541.151 752.21 630.201 642.234 617.294 519.479C604.387 396.723 494.41 307.674 371.655 320.581Z" fill="#C5C5FF"/>
<path d="M340.361 314.399C217.606 327.306 128.556 437.283 141.463 560.038C154.37 682.794 264.346 771.843 387.102 758.936C509.857 746.029 598.907 636.053 586 513.297C573.093 390.542 463.116 301.492 340.361 314.399Z" fill="#C5C5FF"/>
<path d="M308.883 308.237C186.127 321.144 97.0775 431.121 109.985 553.876C122.892 676.631 232.868 765.681 355.623 752.774C478.379 739.867 567.428 629.891 554.521 507.135C541.614 384.38 431.638 295.33 308.883 308.237Z" fill="#C5C5FF"/>
<path d="M277.589 302.056C154.833 314.963 65.7835 424.939 78.6906 547.694C91.5977 670.45 201.574 759.5 324.329 746.592C447.085 733.685 536.134 623.709 523.227 500.954C510.32 378.198 400.344 289.149 277.589 302.056Z" fill="#C5C5FF"/>
<path d="M246.275 295.691C123.52 308.598 34.4701 418.574 47.3771 541.329C60.2842 664.085 170.26 753.134 293.016 740.227C415.771 727.32 504.821 617.344 491.914 494.589C479.007 371.833 369.031 282.784 246.275 295.691Z" fill="#C5C5FF"/>
<path d="M214.797 289.528C92.0412 302.436 2.99154 412.412 15.8986 535.167C28.8057 657.923 138.782 746.972 261.537 734.065C384.293 721.158 473.342 611.182 460.435 488.426C447.528 365.671 337.552 276.621 214.797 289.528Z" fill="#C5C5FF"/>
<path d="M183.503 283.347C60.7473 296.254 -28.3024 406.23 -15.3953 528.986C-2.48823 651.741 107.488 740.791 230.243 727.884C352.999 714.977 442.048 605 429.141 482.245C416.234 359.49 306.258 270.44 183.503 283.347Z" fill="#C5C5FF"/>
<path d="M152.024 277.185C29.2687 290.092 -59.7809 400.068 -46.8738 522.824C-33.9667 645.579 76.0094 734.629 198.765 721.722C321.52 708.814 410.57 598.838 397.663 476.083C384.756 353.327 274.78 264.278 152.024 277.185Z" fill="#C5C5FF"/>
<path d="M120.73 271.003C-2.02521 283.91 -91.0749 393.887 -78.1678 516.642C-65.2607 639.397 44.7155 728.447 167.471 715.54C290.226 702.633 379.276 592.657 366.369 469.901C353.462 347.146 243.486 258.096 120.73 271.003Z" fill="#C5C5FF"/>
<path d="M89.2517 264.841C-33.5037 277.748 -122.553 387.724 -109.646 510.48C-96.7392 633.235 13.237 722.285 135.992 709.378C258.748 696.471 347.797 586.495 334.89 463.739C321.983 340.984 212.007 251.934 89.2517 264.841Z" fill="#C5C5FF"/>
<path d="M57.9578 258.66C-64.7977 271.567 -153.847 381.543 -140.94 504.298C-128.033 627.054 -18.057 716.104 104.698 703.196C227.454 690.289 316.504 580.313 303.596 457.558C290.689 334.802 180.713 245.753 57.9578 258.66Z" fill="#C5C5FF"/>
<path d="M26.6628 252.478C-96.0926 265.385 -185.142 375.362 -172.235 498.117C-159.328 620.872 -49.3519 709.922 73.4035 697.015C196.159 684.108 285.209 574.132 272.302 451.376C259.394 328.621 149.418 239.571 26.6628 252.478Z" fill="#C5C5FF"/>
<path d="M-4.83424 246.132C-127.59 259.04 -216.639 369.016 -203.732 491.771C-190.825 614.527 -80.849 703.576 41.9065 690.669C164.662 677.762 253.712 567.786 240.804 445.03C227.897 322.275 117.921 233.225 -4.83424 246.132Z" fill="#C5C5FF"/>
<path d="M37.0864 238.567C-87.0893 251.624 -177.169 362.872 -164.113 487.048C-151.056 611.224 -39.8078 701.304 84.3679 688.247C208.544 675.191 298.624 563.942 285.567 439.767C272.511 315.591 161.262 225.511 37.0864 238.567Z" fill="#C4C1FF"/>
<path d="M79.1726 230.799C-46.5248 244.016 -137.709 356.628 -124.492 482.325C-111.276 608.023 1.33609 699.207 127.034 685.99C252.731 672.774 343.915 560.162 330.698 434.464C317.482 308.767 204.87 217.583 79.1726 230.799Z" fill="#C2BEFE"/>
<path d="M121.093 223.234C-6.02453 236.6 -98.2387 350.484 -84.873 477.602C-71.5072 604.72 42.3772 696.934 169.495 683.568C296.613 670.203 388.827 556.318 375.461 429.2C362.095 302.083 248.211 209.868 121.093 223.234Z" fill="#C1BAFE"/>
<path d="M163.014 215.669C34.4758 229.184 -58.7688 344.341 -45.2537 472.879C-31.7386 601.417 83.4183 694.662 211.956 681.147C340.495 667.632 433.739 552.475 420.224 423.937C406.709 295.399 291.552 202.154 163.014 215.669Z" fill="#C0B7FE"/>
<path d="M205.1 207.901C75.0402 221.576 -19.3084 338.096 -5.63324 468.156C8.04187 598.216 124.562 692.565 254.622 678.889C384.682 665.214 479.03 548.694 465.355 418.634C451.68 288.574 335.16 194.226 205.1 207.901Z" fill="#BFB3FE"/>
<path d="M247.001 200.152C115.521 213.977 20.1422 331.769 33.9666 463.25C47.7911 594.73 165.584 690.109 297.064 676.284C428.544 662.46 523.923 544.667 510.099 413.187C496.274 281.707 378.481 186.328 247.001 200.152Z" fill="#BDB0FD"/>
<path d="M288.923 192.587C156.022 206.561 59.6132 325.626 73.587 458.527C87.5608 591.427 206.626 687.836 339.526 673.862C472.427 659.889 568.836 540.824 554.862 407.923C540.888 275.023 421.823 178.613 288.923 192.587Z" fill="#BCACFD"/>
<path d="M331.027 185.003C196.706 199.126 99.2669 319.464 113.39 453.784C127.513 588.105 247.851 685.545 382.172 671.421C516.492 657.298 613.932 536.961 599.809 402.64C585.686 268.319 465.348 170.88 331.027 185.003Z" fill="#BBA9FD"/>
<path d="M372.929 177.254C237.086 191.537 138.543 313.238 152.826 449.081C167.109 584.923 288.81 683.467 424.653 669.183C560.495 654.9 659.038 533.199 644.755 397.357C630.472 261.514 508.771 162.971 372.929 177.254Z" fill="#BAA5FC"/>
<path d="M414.849 169.689C277.587 184.121 178.013 307.095 192.445 444.358C206.878 581.621 329.851 681.194 467.114 666.762C604.377 652.329 703.951 529.356 689.518 392.093C675.086 254.83 552.112 155.256 414.849 169.689Z" fill="#B8A2FC"/>
<path d="M456.955 162.105C318.271 176.686 217.667 300.932 232.249 439.615C246.831 578.299 371.077 678.903 509.76 664.321C648.443 649.739 749.047 525.493 734.465 386.81C719.884 248.127 595.638 147.523 456.955 162.105Z" fill="#B79EFC"/>
<path d="M498.837 154.172C358.632 168.914 256.924 294.523 271.665 434.728C286.407 574.933 412.016 676.641 552.221 661.899C692.426 647.157 794.134 521.548 779.393 381.343C764.651 241.138 639.042 139.43 498.837 154.172Z" fill="#B69BFC"/>
<path d="M540.758 146.607C399.133 161.498 296.395 288.38 311.286 430.005C326.177 571.63 453.059 674.369 594.684 659.477C736.309 644.586 839.047 517.705 824.156 376.079C809.265 234.454 682.384 131.716 540.758 146.607Z" fill="#B597FB"/>
<path d="M582.863 139.023C439.817 154.063 336.048 282.217 351.089 425.263C366.129 568.308 494.283 672.077 637.329 657.036C780.375 641.996 884.143 513.842 869.103 370.796C854.062 227.751 725.908 123.982 582.863 139.023Z" fill="#B393FB"/>
<path d="M624.783 131.458C480.317 146.647 375.518 276.074 390.708 420.54C405.898 565.006 535.325 669.805 679.791 654.615C824.256 639.425 929.055 509.998 913.866 365.533C898.676 221.067 769.249 116.268 624.783 131.458Z" fill="#B290FB"/>
<path d="M666.685 123.709C520.697 139.059 414.794 269.848 430.144 415.836C445.494 561.824 576.284 667.727 722.271 652.377C868.259 637.027 974.162 506.237 958.812 360.249C943.462 214.262 812.672 108.359 666.685 123.709Z" fill="#B18CFA"/>
<path d="M708.607 116.144C561.199 131.643 454.265 263.705 469.765 411.113C485.264 558.521 617.326 665.454 764.734 649.955C912.142 634.456 1019.08 502.394 1003.58 354.986C988.077 207.578 856.014 100.645 708.607 116.144Z" fill="#B089FA"/>
<path d="M750.691 108.376C601.863 124.024 493.899 257.359 509.548 406.187C525.196 555.015 658.531 662.979 807.36 647.33C956.188 631.682 1064.15 498.347 1048.5 349.519C1032.85 200.691 899.52 92.7271 750.691 108.376Z" fill="#AF85FA"/>
<path d="M792.613 100.811C642.364 116.608 533.37 251.216 549.168 401.464C564.966 551.713 699.573 660.707 849.822 644.909C1000.07 629.111 1109.06 494.504 1093.27 344.255C1077.47 194.007 942.862 85.0128 792.613 100.811Z" fill="#AD82FA"/>
<path d="M834.514 93.0618C682.744 109.02 572.646 244.99 588.604 396.761C604.562 548.531 740.533 658.629 892.303 642.671C1044.07 626.713 1154.17 490.742 1138.21 338.972C1122.26 187.202 986.285 77.1039 834.514 93.0618Z" fill="#AC7EF9"/>
<path d="M876.619 85.4774C723.428 101.585 612.3 238.828 628.407 392.018C644.514 545.209 781.757 656.337 934.948 640.23C1088.14 624.123 1199.27 486.88 1183.16 333.689C1167.05 180.498 1029.81 69.3702 876.619 85.4774Z" fill="#AB7BF9"/>
<path d="M918.54 77.9124C763.929 94.1689 651.771 232.684 668.028 387.295C684.284 541.906 822.799 654.065 977.41 637.808C1132.02 621.552 1244.18 483.036 1227.92 328.425C1211.67 173.814 1073.15 61.6558 918.54 77.9124Z" fill="#AA77F9"/>
<path d="M960.442 70.1636C804.309 86.5801 691.047 226.459 707.463 382.592C723.88 538.724 863.759 651.987 1019.89 635.57C1176.02 619.154 1289.29 479.275 1272.87 323.142C1256.45 167.009 1116.57 53.7471 960.442 70.1636Z" fill="#A874F8"/>
<path d="M1002.53 62.3955C844.975 78.9613 730.682 220.113 747.248 377.666C763.814 535.219 904.965 649.511 1062.52 632.945C1220.07 616.38 1334.36 475.228 1317.8 317.675C1301.23 160.122 1160.08 45.8296 1002.53 62.3955Z" fill="#A770F8"/>
<path d="M1044.45 54.8304C885.475 71.5456 770.152 213.969 786.867 372.943C803.582 531.916 946.006 647.239 1104.98 630.524C1263.95 613.809 1379.28 471.385 1362.56 312.411C1345.85 153.438 1203.42 38.1152 1044.45 54.8304Z" fill="#A66DF8"/>
<path d="M1086.37 47.2653C925.975 64.1299 809.622 207.826 826.487 368.22C843.351 528.613 987.047 644.967 1147.44 628.102C1307.83 611.238 1424.19 467.541 1407.32 307.148C1390.46 146.754 1246.76 30.4008 1086.37 47.2653Z" fill="#A569F8"/>
<path d="M1128.45 39.4973C966.539 56.5218 849.081 201.581 866.106 363.497C883.131 525.412 1028.19 642.869 1190.11 625.845C1352.02 608.82 1469.48 463.761 1452.45 301.845C1435.43 139.93 1290.37 22.4727 1128.45 39.4973Z" fill="#A366F7"/>
<path d="M1170.38 31.9322C1007.04 49.1061 888.553 195.438 905.726 358.774C922.9 522.109 1069.23 640.597 1232.57 623.423C1395.9 606.249 1514.39 459.917 1497.22 296.582C1480.04 133.246 1333.71 14.7583 1170.38 31.9322Z" fill="#A262F7"/>
</svg>
