<svg width="120" height="40" viewBox="0 0 120 40" fill="none" xmlns="http://www.w3.org/2000/svg">
<path d="M100.606 0.791174C100.365 0.540984 100.077 0.34196 99.7571 0.206015C99.4376 0.0700698 99.0939 0 98.7466 0C98.3993 0 98.0556 0.0700698 97.7361 0.206015C97.4166 0.34196 97.1277 0.540984 96.8869 0.791174C96.6174 1.10514 96.4771 1.50966 96.4943 1.92306C96.5115 2.33646 96.6849 2.72794 96.9795 3.01846V3.01846L106.085 12.1236L94.3601 23.8536L97.2572 26.7507L111.922 12.0855L100.606 0.791174Z" fill="#360E5C"/>
<path d="M96.9795 3.00193C96.6818 2.70755 96.5084 2.31006 96.4952 1.89153C96.482 1.47301 96.6301 1.0654 96.9087 0.752869L82.4396 15.2275C82.2726 15.3939 82.1401 15.5917 82.0498 15.8094C81.9594 16.0271 81.9128 16.2606 81.9128 16.4963C81.9128 16.7321 81.9594 16.9655 82.0498 17.1832C82.1401 17.401 82.2726 17.5987 82.4396 17.7652L91.4413 26.7614L106.085 12.1126L96.9795 3.00193Z" fill="#A262F7"/>
<path d="M97.426 40C96.6292 40.0004 95.8401 39.8438 95.1038 39.5392C94.3676 39.2346 93.6985 38.7879 93.1348 38.2247L86.551 31.6409L91.4521 26.7398L97.4424 32.73L114.994 15.1732L119.895 20.0743L101.717 38.2247C101.154 38.7887 100.485 39.2358 99.7488 39.5405C99.0123 39.8451 98.223 40.0013 97.426 40V40Z" fill="#A262F7"/>
<path d="M91.4416 26.7561L86.5405 31.6572L87.6297 32.7464C88.9297 34.0459 90.6926 34.776 92.5308 34.776C94.369 34.776 96.1319 34.0459 97.4319 32.7464L91.4416 26.7561Z" fill="#360E5C"/>
<path d="M0.0935059 27.7207L0.0935059 32.2931H3.58283C4.89526 32.2888 6.15268 31.7763 7.08072 30.8675C8.00876 29.9587 8.53208 28.7273 8.53649 27.4421L8.53649 14.9294L3.86733 14.9294L3.86733 27.7207H0.0935059Z" fill="#360E5C"/>
<path d="M45.1956 32.2603H48.4087C49.6775 32.2558 50.8965 31.7763 51.816 30.9201C52.7354 30.0639 53.2857 28.8958 53.354 27.6551V27.4502H58.7763C60.0901 27.4502 61.3501 26.9391 62.2791 26.0294C63.2081 25.1196 63.73 23.8858 63.73 22.5992V14.7245L59.0692 14.7245V22.9188H53.3624V14.7245L48.6932 14.7245V27.7206H45.1956V32.2603Z" fill="#360E5C"/>
<path d="M35.3091 4.54562L31.6584 8.12067L32.6288 9.07092L36.2795 5.49588L35.3091 4.54562Z" fill="#360E5C"/>
<path d="M35.3091 4.54562L31.6584 8.12067L32.6288 9.07092L36.2795 5.49588L35.3091 4.54562Z" fill="#360E5C"/>
<path d="M16.9123 7.21844L12.2432 7.21844L12.2432 27.6796H16.9123L16.9123 7.21844Z" fill="#360E5C"/>
<path d="M25.0963 7.21844L20.4355 7.21844V11.7827H25.0963V7.21844Z" fill="#360E5C"/>
<path d="M63.7299 29.1297H59.1277V33.6366H63.7299V29.1297Z" fill="#360E5C"/>
<path d="M23.6398 30.8263C24.5043 29.983 25.0199 28.8564 25.0874 27.6633L45.1698 27.6633V19.2232C45.0395 18.1303 44.5386 17.1118 43.7473 16.3306C43.2902 15.8797 42.7466 15.5217 42.1478 15.277C41.549 15.0323 40.9068 14.9059 40.258 14.9048H35.3462L40.6262 9.72602L37.3293 6.51385L28.811 14.8556V19.4772L40.5258 19.4772V23.3367L25.0958 23.3367L25.0958 14.9294L20.4266 14.9294L20.4266 27.7207H16.9038V32.2931H20.1756C20.8231 32.2835 21.4623 32.149 22.0567 31.8973C22.6511 31.6456 23.1891 31.2817 23.6398 30.8263V30.8263Z" fill="#360E5C"/>
</svg>
